<?xml version="1.0" standalone="no"?>
<!DOCTYPE svg PUBLIC "-//W3C//DTD SVG 20010904//EN"
 "http://www.w3.org/TR/2001/REC-SVG-20010904/DTD/svg10.dtd">
<svg version="1.0" xmlns="http://www.w3.org/2000/svg"
 width="52.000000pt" height="51.000000pt" viewBox="0 0 52.000000 51.000000"
 preserveAspectRatio="xMidYMid meet">
<metadata>
Created by potrace 1.15, written by Peter Selinger 2001-2017
</metadata>
<g transform="translate(0.000000,51.000000) scale(0.100000,-0.100000)" fill="#9e9940" opacity="0.800000036" stroke="#676d58" stroke-width="3">
<path  d="M174 454 c-77 -41 -103 -63 -124 -104 -45 -88 -15 -193 73 -257 124
-89 258 -73 333 39 128 191 -80 429 -282 322z m196 -70 c41 -35 60 -74 60
-126 0 -57 -35 -116 -83 -141 -47 -24 -58 -15 -25 21 38 41 48 65 48 122 0 50
-17 98 -48 133 -25 29 11 22 48 -9z"/>
</g>
</svg>
